<svg id="Layer_1" data-name="Layer 1" xmlns="http://www.w3.org/2000/svg" viewBox="0 0 1106 469"><defs><style>.cls-1{fill:#4d2a7c;}.cls-2{fill:#ec1c3b;}.cls-3{fill:#f7f8f8;}</style></defs><title>Icons </title><rect class="cls-1" x="1.65" y="61.32" width="84" height="84" rx="24.62" ry="24.62"/><rect class="cls-2" x="83.31" y="415.19" width="50.57" height="50.57" rx="14.82" ry="14.82"/><rect class="cls-1" x="972" y="186.99" width="65.17" height="65.17" rx="19.1" ry="19.1"/><rect class="cls-1" x="1043.33" y="406.21" width="59.56" height="59.56" rx="17.45" ry="17.45"/><path class="cls-3" d="M554.29,173.31a10.45,10.45,0,0,1-.4,4.65l.13,0,.64-2c.22.7.42,1.32.62,1.94l.14,0a10.78,10.78,0,0,1-.4-4.66l.43-.06a2,2,0,0,0,1.76-1.13c.88-1.93,1.76-3.87,2.53-5.86a6.94,6.94,0,0,0-.08-4.25,16,16,0,0,1-.45-2.58,2.64,2.64,0,0,1,3.42-3,6.55,6.55,0,0,1,4.91,7,9.63,9.63,0,0,1-2,4.71,86.55,86.55,0,0,0-7.53,11.6,5.89,5.89,0,0,1-1.67,1.91,3.07,3.07,0,0,1-4.21-.72,17.31,17.31,0,0,1-1.59-2.47,73,73,0,0,0-6.51-9.92,10.46,10.46,0,0,1-2.28-5.13,6.61,6.61,0,0,1,5-7c2.13-.42,3.57.89,3.37,3.11a11.4,11.4,0,0,1-.4,2.31,7.68,7.68,0,0,0,.56,6.18,33.64,33.64,0,0,1,1.37,3.21C552.29,172.73,552.64,173,554.29,173.31Z"/><path class="cls-3" d="M552.26,168.23a1.66,1.66,0,0,1-1.3-1.11,2.8,2.8,0,0,1,.13-2.43A4.61,4.61,0,0,1,552.26,168.23Z"/><path class="cls-3" d="M558.27,164.75a2.72,2.72,0,0,1,.12,2.25,1.54,1.54,0,0,1-1.26,1.17A3.82,3.82,0,0,1,558.27,164.75Z"/><rect class="cls-2" x="976.8" y="6.62" width="84" height="84" rx="24.62" ry="24.62"/><path class="cls-3" d="M1023.53,23.38c-10.76,6.2-9.47,23.66-9.47,23.66s-4.73-1.57-4.73-8.67a19.23,19.23,0,0,0-9.46,16.56,18.93,18.93,0,1,0,37.85,0c0-15.38-14.19-18.53-14.19-31.55Zm-3.07,44A7.1,7.1,0,0,1,1017,53.56c9.19-2.29,10.34-7.45,10.34-7.45S1031.94,64.47,1020.46,67.34Z"/><path class="cls-3" d="M110.74,423.84c-7.35,4.24-6.47,16.17-6.47,16.17s-3.23-1.08-3.23-5.93a13.15,13.15,0,0,0-6.47,11.32,12.94,12.94,0,1,0,25.87,0c0-10.51-9.7-12.66-9.7-21.56Zm-2.1,30a4.85,4.85,0,0,1-2.35-9.41c6.28-1.57,7.06-5.1,7.06-5.1S116.48,451.92,108.64,453.88Z"/><path class="cls-3" d="M1019.34,203.84h-7.4a.92.92,0,0,0,0,1.84h6.49v7a.92.92,0,1,0,1.83,0v-8A.92.92,0,0,0,1019.34,203.84Z"/><path class="cls-3" d="M989.82,213.08a.92.92,0,0,0,.92-.92v-6.48h7a.92.92,0,1,0,0-1.84h-7.95a.92.92,0,0,0-.92.92v7.4A.92.92,0,0,0,989.82,213.08Z"/><path class="cls-3" d="M997.21,233.46h-6.48v-7a.92.92,0,0,0-1.84,0v8a.92.92,0,0,0,.92.92h7.4a.92.92,0,1,0,0-1.84Z"/><path class="cls-3" d="M1019.34,226.06a.92.92,0,0,0-.92.92v6.48h-7a.92.92,0,0,0,0,1.84h8a.92.92,0,0,0,.92-.92V227a.92.92,0,0,0-.92-.92Z"/><path class="cls-3" d="M1000.91,222.1h-7.43a.92.92,0,0,0-.92.92v7.6a.92.92,0,0,0,.92.91h7.43a.92.92,0,0,0,.92-.91V223A.92.92,0,0,0,1000.91,222.1Zm-.92,7.6H994.4v-5.76H1000v5.76Z"/><path class="cls-3" d="M1000.91,218.6h-2a.92.92,0,0,0,0,1.84h2a.92.92,0,1,0,0-1.84Z"/><path class="cls-3" d="M993.48,220.44h2a.92.92,0,0,0,0-1.84h-2a.92.92,0,0,0,0,1.84Z"/><path class="cls-3" d="M1004.58,216.93a.92.92,0,0,0,.92-.92v-7.59a.92.92,0,1,0-1.84,0V216A.92.92,0,0,0,1004.58,216.93Z"/><path class="cls-3" d="M1016.61,230.62v-4.4a.92.92,0,0,0-.92-.92h-4.51v-1.59a.92.92,0,0,0-.92-.92h-4.76v-2.35h6.94v1.28a.92.92,0,1,0,1.84,0v-1.28h1.41a.92.92,0,0,0,0-1.84h-11.11a.92.92,0,0,0-.92.92v11a.92.92,0,1,0,1.84,0v-2.31H1007a.92.92,0,0,0,0-1.84h-1.49v-1.79h3.84v1.59a.92.92,0,0,0,.92.92h4.51v2.56h-6.92a.92.92,0,0,0,0,1.83h7.84a.92.92,0,0,0,.92-.91Z"/><path class="cls-3" d="M1000.91,207.5h-7.43a.92.92,0,0,0-.92.92V216a.92.92,0,0,0,.92.92h7.43a.92.92,0,0,0,.92-.92v-7.59a.92.92,0,0,0-.92-.92Zm-.92,7.6H994.4v-5.76H1000v5.76Z"/><path class="cls-3" d="M1008.26,216.93h7.43a.92.92,0,0,0,.92-.92v-7.59a.92.92,0,0,0-.92-.92h-7.43a.92.92,0,0,0-.92.92V216A.92.92,0,0,0,1008.26,216.93Zm.92-7.59h5.59v5.76h-5.59Z"/><path class="cls-3" d="M996.49,228h1.42a.48.48,0,0,0,.48-.49v-1.47a.48.48,0,0,0-.48-.49h-1.42a.49.49,0,0,0-.49.49v1.47A.49.49,0,0,0,996.49,228Z"/><path class="cls-3" d="M996.49,213.44h1.42a.48.48,0,0,0,.48-.49v-1.47a.48.48,0,0,0-.48-.49h-1.42a.49.49,0,0,0-.49.49V213A.49.49,0,0,0,996.49,213.44Z"/><path class="cls-3" d="M1012.69,211h-1.42a.49.49,0,0,0-.49.49V213a.49.49,0,0,0,.49.49h1.42a.48.48,0,0,0,.48-.49v-1.47A.48.48,0,0,0,1012.69,211Z"/><path class="cls-3" d="M43.06,110a17.48,17.48,0,0,1-.66,7.68l.21,0,1-3.23c.36,1.16.71,2.18,1,3.21l.23,0a17.5,17.5,0,0,1-.66-7.68,6.47,6.47,0,0,1,.71-.11,3.31,3.31,0,0,0,2.9-1.86c1.46-3.19,2.91-6.4,4.18-9.67.89-2.31.45-4.68-.13-7a25.56,25.56,0,0,1-.75-4.25c-.28-3.66,2.14-5.76,5.65-5a10.82,10.82,0,0,1,8.1,11.6,16,16,0,0,1-3.29,7.78A141.63,141.63,0,0,0,49.2,120.63a10,10,0,0,1-2.76,3.14,5.08,5.08,0,0,1-6.95-1.17,29.33,29.33,0,0,1-2.63-4.09,119.76,119.76,0,0,0-10.74-16.36,17.39,17.39,0,0,1-3.77-8.48c-.64-5.09,3.19-10.61,8.26-11.59,3.51-.68,5.88,1.48,5.56,5.13A18.88,18.88,0,0,1,35.51,91a12.7,12.7,0,0,0,.92,10.21,52.78,52.78,0,0,1,2.27,5.3C39.75,109.09,40.32,109.57,43.06,110Z"/><path class="cls-3" d="M39.7,101.65a2.72,2.72,0,0,1-2.14-1.82,4.58,4.58,0,0,1,.22-4C39.43,97.52,39.72,99.46,39.7,101.65Z"/><path class="cls-3" d="M49.63,95.92a4.51,4.51,0,0,1,.19,3.7,2.55,2.55,0,0,1-2.07,1.95A6.27,6.27,0,0,1,49.63,95.92Z"/><path class="cls-3" d="M1072.75,440.13a10.81,10.81,0,0,1-.41,4.73l.13,0,.65-2c.22.71.43,1.35.63,2l.15,0a10.8,10.8,0,0,1-.41-4.73l.43-.06a2,2,0,0,0,1.79-1.15c.9-2,1.8-3.94,2.57-5.95a6.94,6.94,0,0,0-.08-4.32,16.71,16.71,0,0,1-.46-2.62c-.17-2.26,1.32-3.55,3.48-3.09a6.66,6.66,0,0,1,5,7.14,9.79,9.79,0,0,1-2,4.8,87.11,87.11,0,0,0-7.65,11.79,5.94,5.94,0,0,1-1.7,1.93,3.12,3.12,0,0,1-4.28-.72,18,18,0,0,1-1.62-2.52,73.7,73.7,0,0,0-6.61-10.07,10.64,10.64,0,0,1-2.32-5.22,6.73,6.73,0,0,1,5.08-7.14c2.17-.42,3.63.91,3.43,3.16a11.68,11.68,0,0,1-.41,2.35,7.79,7.79,0,0,0,.57,6.28,31.45,31.45,0,0,1,1.39,3.27C1070.71,439.54,1071.06,439.84,1072.75,440.13Z"/><path class="cls-3" d="M1070.68,435a1.64,1.64,0,0,1-1.31-1.12,2.79,2.79,0,0,1,.13-2.47A4.68,4.68,0,0,1,1070.68,435Z"/><path class="cls-3" d="M1076.79,431.43a2.75,2.75,0,0,1,.12,2.28,1.56,1.56,0,0,1-1.27,1.2A3.88,3.88,0,0,1,1076.79,431.43Z"/></svg>